# xmcd
#
# Track frame offsets: 
#        150
#        21577
#        41620
#        63230
#        83545
#        104004
#        125475
#        145240
#        164522
#        185332
#        204467
#        221732
#
# Disc length: 3428 seconds
#
# Revision: 3
# Processed by: cddbd v1.5.2PL0 Copyright (c) Steve Scherf et al.
# Submitted via: ExactAudioCopy v1.0b2
#
DISCID=b00d620c
DTITLE=김현철 - 7집 - 어느 누군가를 사랑한다는 건 미친짓이야
DYEAR=1999
DGENRE=K-Pop
TTITLE0=연애 (작사:김현철 작곡:김현철)
TTITLE1=사랑에 빠졌네 (작사:김현철 작곡:김현철)
TTITLE2=이길은 언제나 (작사:김현철 작곡:김현철)
TTITLE3=잘못하고 있는 일 (작사:김현철 작곡:김현철)
TTITLE4=어느 누군가를 사랑한다는건 미친짓이야 (Let It Out) (작사:김현철 작곡:김현철)
TTITLE5=하물며 (작사:김현철 작곡:김현철)
TTITLE6=사과나무 (작곡:김현철)
TTITLE7=Rhythem Of Emotion (Duet_With 신재홍) (작사:김현철 작곡:김현철)
TTITLE8=그렇더라도 featuring 최원석 (작사:김현철 작곡:김현철)
TTITLE9=Where Are You (작사:김현철 작곡:김현철)
TTITLE10=Lullabye For 엄마 (작사:김현철 작곡:김현철)
TTITLE11=영혼까지 기억되도록 (Eternal Memory) (작곡:김현철)
EXTD=YEAR: 1997
EXTT0=
EXTT1=
EXTT2=
EXTT3=
EXTT4=
EXTT5=
EXTT6=
EXTT7=
EXTT8=
EXTT9=
EXTT10=
EXTT11=
PLAYORDER=
